<?xml version="1.0" standalone="no"?>
<!DOCTYPE svg PUBLIC "-//W3C//DTD SVG 20010904//EN"
 "http://www.w3.org/TR/2001/REC-SVG-20010904/DTD/svg10.dtd">
<svg version="1.0" xmlns="http://www.w3.org/2000/svg"
 width="400.000000pt" height="400.000000pt" viewBox="0 0 400.000000 400.000000"
 preserveAspectRatio="xMidYMid meet">
<metadata>
Created by potrace 1.11, written by Peter Selinger 2001-2013
</metadata>
<g transform="translate(0.000000,400.000000) scale(0.100000,-0.100000)"
fill="#000000" stroke="none">
<path d="M1439 3895 c-2 -1 -26 -6 -54 -9 -112 -15 -254 -58 -370 -111 -57
-27 -205 -112 -215 -124 -3 -4 -25 -22 -50 -41 -72 -54 -212 -202 -268 -283
-102 -147 -188 -351 -217 -512 -19 -105 -23 -171 -20 -295 4 -204 36 -340 113
-495 65 -130 145 -229 341 -419 210 -203 299 -356 336 -571 3 -16 7 -82 10
-145 3 -63 10 -140 16 -170 66 -347 358 -602 707 -616 420 -17 764 295 787
716 6 92 -39 148 -114 142 -57 -5 -89 -45 -97 -120 -11 -119 -28 -177 -76
-261 -63 -110 -204 -218 -328 -251 -67 -18 -189 -20 -261 -3 -142 32 -282 138
-351 264 -56 101 -65 137 -73 305 -14 271 -75 456 -213 639 -33 44 -134 155
-224 246 -228 230 -291 323 -339 504 -30 114 -37 338 -15 460 60 325 236 590
506 764 112 73 279 141 382 156 23 4 47 9 52 12 20 13 265 10 346 -3 318 -51
584 -223 764 -494 119 -179 178 -363 191 -591 4 -81 23 -115 75 -130 50 -15
89 -2 118 42 22 32 23 40 18 132 -8 130 -44 310 -76 382 -4 11 -23 54 -41 95
-97 219 -272 427 -480 568 -119 81 -357 179 -477 197 -21 3 -49 8 -62 11 -27
7 -336 15 -341 9z"/>
<path d="M3150 2309 c-213 -21 -368 -151 -436 -364 -24 -77 -30 -293 -10 -380
63 -265 260 -418 526 -409 111 4 128 7 197 33 111 42 213 136 263 246 46 99
58 168 56 309 -3 131 -5 145 -29 221 -40 126 -137 240 -247 292 -105 49 -194
64 -320 52z m207 -179 c91 -39 159 -137 182 -260 5 -30 9 -97 9 -149 -2 -194
-61 -319 -181 -383 -36 -20 -57 -23 -147 -23 -98 0 -109 2 -158 29 -85 48
-132 118 -158 241 -15 71 -16 209 -2 285 25 137 106 243 210 272 74 22 180 16
245 -12z"/>
</g>
</svg>
